<?xml version="1.0" encoding="utf-8"?>
<!-- Generator: Adobe Illustrator 26.0.3, SVG Export Plug-In . SVG Version: 6.00 Build 0)  -->
<svg version="1.1" xmlns="http://www.w3.org/2000/svg" xmlns:xlink="http://www.w3.org/1999/xlink" x="0px" y="0px"
	 viewBox="0 0 750 750" style="enable-background:new 0 0 750 750;" xml:space="preserve">
<style type="text/css">
	.st0{display:none;}
	.st1{display:inline;}
	.st2{fill:#FFFFFF;}
	.st3{display:inline;fill:#FFFFFF;}
	.st4{fill:none;stroke:#000000;stroke-width:50;}
	.st5{stroke:#000000;stroke-width:50;}
	.st6{stroke:#FFFFFF;stroke-width:50;}
	.st7{stroke:#FFFFFF;stroke-miterlimit:10;}
	.st8{fill:none;}
</style>
<g id="Ebene_1" class="st0">
</g>
<g id="Ebene_2">
	<g>
		<g id="Gruppe_555" transform="translate(-332.961 -174)">
			<g id="Ellipse_2" transform="translate(332.961 174)">
				<circle class="st8" cx="375.3" cy="380.7" r="300"/>
				<path d="M375.3,680.7c-80.1,0-155.5-31.2-212.1-87.9s-87.9-132-87.9-212.1c0-80.1,31.2-155.5,87.9-212.1s132-87.9,212.1-87.9
					c80.1,0,155.5,31.2,212.1,87.9s87.9,132,87.9,212.1c0,80.1-31.2,155.5-87.9,212.1S455.4,680.7,375.3,680.7z M375.3,123.9
					c-68.6,0-133.1,26.7-181.6,75.2s-75.2,113-75.2,181.6s26.7,133.1,75.2,181.6c48.5,48.5,113,75.2,181.6,75.2
					s133.1-26.7,181.6-75.2c48.5-48.5,75.2-113,75.2-181.6s-26.7-133.1-75.2-181.6C508.3,150.6,443.9,123.9,375.3,123.9z"/>
			</g>
		</g>
		<g>
			<g id="Gruppe_377" transform="translate(5.745 6.368)">
				<path id="Pfad_438" d="M362.5,498.3l103.2-100H207.3v-48h258.4l-103.1-100l32.4-32.4L552,374.3L394.9,530.8L362.5,498.3z"/>
			</g>
		</g>
	</g>
</g>
</svg>
