<svg id="Ebene_1" data-name="Ebene 1" xmlns="http://www.w3.org/2000/svg" viewBox="0 0 750 750"><title>mova_nav-icons_V01</title><path d="M372.21,126.65A167.61,167.61,0,0,1,516.54,379.37l-1.37,2.32-.27.4-.46.73c-2,3.27-4.22,6.51-6.47,9.62l-.51.7-.49.72L363.58,606.78,251.91,420.12,227.8,379.33A167.59,167.59,0,0,1,372.18,126.65h0m0-50C252,76.64,154.62,174,154.61,294.19a216.46,216.46,0,0,0,30.15,110.58h-.3L361.09,700,548.45,421.79q4.41-6.09,8.4-12.49l3-4.48h-.29a216.51,216.51,0,0,0,30.18-110.56c0-120.17-97.38-217.6-217.55-217.61Z"/><path d="M372.19,257.19a37,37,0,1,1-37,37,36.84,36.84,0,0,1,37-37h0m0-50a87,87,0,0,0,0,174.07h0a87,87,0,0,0,0-174.07Z"/></svg>