<?xml version="1.0" encoding="utf-8"?>
<!-- Generator: Adobe Illustrator 26.0.3, SVG Export Plug-In . SVG Version: 6.00 Build 0)  -->
<svg version="1.1" xmlns="http://www.w3.org/2000/svg" xmlns:xlink="http://www.w3.org/1999/xlink" x="0px" y="0px"
	 viewBox="0 0 750 750" style="enable-background:new 0 0 750 750;" xml:space="preserve">
<style type="text/css">
	.st0{display:none;}
	.st1{display:inline;}
	.st2{fill:#FFFFFF;}
	.st3{display:inline;fill:#FFFFFF;}
	.st4{fill:none;stroke:#000000;stroke-width:50;}
	.st5{stroke:#000000;stroke-width:50;}
	.st6{stroke:#FFFFFF;stroke-width:50;}
	.st7{stroke:#FFFFFF;stroke-miterlimit:10;}
	.st8{fill:none;}
</style>
<g id="Ebene_1" class="st0">
</g>
<g id="Ebene_2">
	<g>
		<g id="mova_Plus_00000005266545729959655910000008922768933067006597_" transform="translate(339.891 180.077)">
			<g id="Gruppe_432_00000108294511340768141710000016204393776130894264_" transform="translate(0 0)">
				<path id="Pfad_443_00000053541604907110760300000018011193099172403585_" d="M222.5,175.1v50.8l-364.8,0.2v-51H222.5z"/>
			</g>
		</g>
		<g id="Ellipse_2_00000116198228171178998670000012586393613724119727_" transform="translate(332.961 174)">
			<circle class="st8" cx="42.3" cy="206.7" r="300"/>
			<path d="M42.3,506.7c-80.1,0-155.5-31.2-212.1-87.9s-87.9-132-87.9-212.1c0-80.1,31.2-155.5,87.9-212.1s132-87.9,212.1-87.9
				c80.1,0,155.5,31.2,212.1,87.9s87.9,132,87.9,212.1c0,80.1-31.2,155.5-87.9,212.1S122.5,506.7,42.3,506.7z M42.3-50.1
				c-68.6,0-133.1,26.7-181.6,75.2s-75.2,113-75.2,181.6s26.7,133.1,75.2,181.6c48.5,48.5,113,75.2,181.6,75.2
				s133.1-26.7,181.6-75.2c48.5-48.5,75.2-113,75.2-181.6S272.4,73.6,223.9,25.1C175.4-23.4,110.9-50.1,42.3-50.1z"/>
		</g>
	</g>
</g>
</svg>
