<?xml version="1.0" encoding="utf-8"?>
<!-- Generator: Adobe Illustrator 26.0.3, SVG Export Plug-In . SVG Version: 6.00 Build 0)  -->
<svg version="1.1" xmlns="http://www.w3.org/2000/svg" xmlns:xlink="http://www.w3.org/1999/xlink" x="0px" y="0px"
	 viewBox="0 0 750 750" style="enable-background:new 0 0 750 750;" xml:space="preserve">
<style type="text/css">
	.st0{display:none;}
	.st1{display:inline;}
	.st2{fill:#FFFFFF;}
	.st3{display:inline;fill:#FFFFFF;}
	.st4{fill:none;stroke:#000000;stroke-width:50;}
	.st5{stroke:#000000;stroke-width:50;}
	.st6{stroke:#FFFFFF;stroke-width:50;}
	.st7{stroke:#FFFFFF;stroke-miterlimit:10;}
	.st8{fill:none;}
</style>
<g id="Ebene_1" class="st0">
</g>
<g id="Ebene_2">
	<g>
		<g>
			<g id="Gruppe_528">
				<path id="Pfad_446" d="M521.1,358c0-84-68.1-152-152.1-152c-84,0-152,68.1-152,152.1c-1.2,27.3,6.2,54.3,21.1,77.2
					C265.6,473.4,361.4,577,361.4,577s111.4-100.4,138.8-141.7C513.6,411.7,520.7,385.2,521.1,358 M369,418.8
					c-33.6,0-60.8-27.2-60.8-60.8s27.2-60.8,60.8-60.8s60.8,27.2,60.8,60.8l0,0C429.8,391.6,402.6,418.8,369,418.8"/>
			</g>
		</g>
	</g>
</g>
</svg>
