<svg id="Ebene_1" data-name="Ebene 1" xmlns="http://www.w3.org/2000/svg" viewBox="0 0 1500 1500"><defs><style>.cls-1{fill:#fff;}</style></defs><title>mova_nav-icons_V01</title><rect class="cls-1" x="545.73" y="483.73" width="126.23" height="540.27"/><rect class="cls-1" x="818.59" y="483.73" width="126.23" height="540.27"/><path class="cls-1" d="M749.82,202.39a547.14,547.14,0,0,1,307.38,93.87,551.49,551.49,0,0,1,199.26,242,549.09,549.09,0,0,1-50.68,521.38,551.7,551.7,0,0,1-242,199.26,549,549,0,0,1-521.37-50.69,551.41,551.41,0,0,1-199.26-242,549.09,549.09,0,0,1,50.68-521.38,551.56,551.56,0,0,1,242-199.26,546.3,546.3,0,0,1,214-43.19m0-50C418.55,152.39,150,420.94,150,752.22S418.55,1352,749.82,1352s599.83-268.55,599.83-599.82S1081.1,152.39,749.82,152.39Z"/></svg>