<svg id="Ebene_1" data-name="Ebene 1" xmlns="http://www.w3.org/2000/svg" viewBox="0 0 1500 1500"><defs><style>.cls-1{fill:#fff;}</style></defs><title>mova_nav-icons_V01</title><path class="cls-1" d="M751.16,202.39a547,547,0,0,1,307.37,93.87,551.49,551.49,0,0,1,199.26,242,549.09,549.09,0,0,1-50.68,521.38,551.77,551.77,0,0,1-241.95,199.26,549,549,0,0,1-521.38-50.69,551.41,551.41,0,0,1-199.26-242A549.09,549.09,0,0,1,295.2,444.84a551.49,551.49,0,0,1,242-199.26,546.26,546.26,0,0,1,214-43.19m0-50c-331.28,0-599.83,268.55-599.83,599.83S419.88,1352,751.16,1352,1351,1083.49,1351,752.22,1082.43,152.39,751.16,152.39Z"/><polygon class="cls-1" points="597 473.1 597 1035.02 1058 755.94 597 473.1"/></svg>