<?xml version="1.0" encoding="utf-8"?>
<!-- Generator: Adobe Illustrator 26.0.3, SVG Export Plug-In . SVG Version: 6.00 Build 0)  -->
<svg version="1.1" xmlns="http://www.w3.org/2000/svg" xmlns:xlink="http://www.w3.org/1999/xlink" x="0px" y="0px"
	 viewBox="0 0 750 750" style="enable-background:new 0 0 750 750;" xml:space="preserve">
<style type="text/css">
	.st0{display:none;}
	.st1{display:inline;}
	.st2{fill:#FFFFFF;}
	.st3{display:inline;fill:#FFFFFF;}
	.st4{fill:none;stroke:#000000;stroke-width:50;}
	.st5{stroke:#000000;stroke-width:50;}
	.st6{stroke:#FFFFFF;stroke-width:50;}
	.st7{stroke:#FFFFFF;stroke-miterlimit:10;}
	.st8{fill:none;}
</style>
<g id="Ebene_1" class="st0">
</g>
<g id="Ebene_2">
	<g id="Gruppe_555_00000139289252904651196280000017453804013433810101_" transform="translate(-332.961 -174)">
		<g id="mova_Plus_00000037663665566630264870000003048380456926972831_" transform="translate(339.891 180.077)">
			<g id="Gruppe_432_00000017507250952629865380000010624112178441945224_" transform="translate(0 0)">
				<path id="Pfad_443_00000163772949501505788270000000613420000555106737_" d="M397.9,185.6v159.8h153.6v47.4H397.9v161.4h-50.2
					V393H194v-47.5h153.7V185.6H397.9z"/>
			</g>
		</g>
		<g id="Ellipse_2_00000011723133698630801710000001026302877140314754_" transform="translate(332.961 174)">
			<circle class="st8" cx="375" cy="380.7" r="300"/>
			<path d="M375,680.7c-80.1,0-155.5-31.2-212.1-87.9S75,460.8,75,380.7c0-80.1,31.2-155.5,87.9-212.1s132-87.9,212.1-87.9
				c80.1,0,155.5,31.2,212.1,87.9s87.9,132,87.9,212.1c0,80.1-31.2,155.5-87.9,212.1S455.1,680.7,375,680.7z M375,123.9
				c-68.6,0-133.1,26.7-181.6,75.2s-75.2,113-75.2,181.6s26.7,133.1,75.2,181.6c48.5,48.5,113,75.2,181.6,75.2
				s133.1-26.7,181.6-75.2c48.5-48.5,75.2-113,75.2-181.6s-26.7-133.1-75.2-181.6C508.1,150.6,443.6,123.9,375,123.9z"/>
		</g>
	</g>
</g>
</svg>
