<svg id="Ebene_1" data-name="Ebene 1" xmlns="http://www.w3.org/2000/svg" viewBox="0 0 750 750"><title>mova_nav-icons_V01</title><path d="M279.7,470.3a134.92,134.92,0,0,1,39.79-218.17l-32.35-39.71a184.83,184.83,0,0,0-.8,324.72l32.3-39.65A135,135,0,0,1,279.7,470.3Z"/><path d="M470.3,279.71a134.92,134.92,0,0,1-37.61,217.16l32,39.7A184.81,184.81,0,0,0,462.08,212L430,251.89A134.87,134.87,0,0,1,470.3,279.71Z"/><circle cx="373.53" cy="375.86" r="83.77"/><path d="M503.52,160.5A250.18,250.18,0,0,1,506.06,588l31.57,39.18C620.28,573.7,675,480.74,675,375c0-106.82-55.84-200.58-139.9-253.74Z"/><path d="M212.82,627.42l31.8-39a250.2,250.2,0,0,1,.76-427.21L213.56,122.1C130.24,175.41,75,268.75,75,375,75,480.94,129.91,574,212.82,627.42Z"/></svg>