<svg id="Ebene_1" data-name="Ebene 1" xmlns="http://www.w3.org/2000/svg" viewBox="0 0 750 750"><title>mova_nav-icons_V01</title><path d="M290.68,541.45l29.39-41.31a134.93,134.93,0,0,1,.65-246.57l-29.45-41.32a184.84,184.84,0,0,0-.59,329.2Z"/><path d="M457.89,211.84l-29.16,41.5a134.92,134.92,0,0,1,2.59,246.17l29.11,41.35a184.81,184.81,0,0,0-2.54-329Z"/><path d="M373.53,342.09a33.77,33.77,0,1,1-33.77,33.77,33.81,33.81,0,0,1,33.77-33.77m0-50a83.77,83.77,0,1,0,83.77,83.77,83.77,83.77,0,0,0-83.77-83.77Z"/><path d="M252.56,595a250.15,250.15,0,0,1,.53-436.34l-29.16-40.9C134.86,169.8,75,266.4,75,377c0,110.4,59.64,206.85,148.44,258.94Z"/><path d="M524.59,116.9,495.71,158a250.17,250.17,0,0,1,2.52,436.57l28.88,41C615.61,583.44,675,487.17,675,377,675,265.79,614.49,168.72,524.59,116.9Z"/></svg>