<?xml version="1.0" encoding="UTF-8" standalone="no"?>
<!DOCTYPE svg PUBLIC "-//W3C//DTD SVG 1.1//EN" "http://www.w3.org/Graphics/SVG/1.1/DTD/svg11.dtd">
<svg width="100%" height="100%" viewBox="0 0 750 750" version="1.1" xmlns="http://www.w3.org/2000/svg" xmlns:xlink="http://www.w3.org/1999/xlink" xml:space="preserve" xmlns:serif="http://www.serif.com/" style="fill-rule:evenodd;clip-rule:evenodd;stroke-linejoin:round;stroke-miterlimit:2;">
    <g>
        <path d="M223.29,216.64L710.85,216.64L710.85,674.28L42.92,674.28L42.92,216.64L173.29,216.64L173.29,75.99L223.29,75.99L223.29,216.64ZM474.48,301.89C395.876,301.89 332.06,365.706 332.06,444.31C332.06,522.914 395.876,586.73 474.48,586.73C553.084,586.73 616.9,522.914 616.9,444.31C616.9,365.706 553.084,301.89 474.48,301.89ZM474.48,351.89C525.488,351.89 566.9,393.302 566.9,444.31C566.9,495.318 525.488,536.73 474.48,536.73C423.472,536.73 382.06,495.318 382.06,444.31C382.06,393.302 423.472,351.89 474.48,351.89Z"/>
    </g>
</svg>
