<?xml version="1.0" encoding="UTF-8" standalone="no"?>
<!DOCTYPE svg PUBLIC "-//W3C//DTD SVG 1.1//EN" "http://www.w3.org/Graphics/SVG/1.1/DTD/svg11.dtd">
<svg width="100%" height="100%" viewBox="0 0 750 750" version="1.1" xmlns="http://www.w3.org/2000/svg" xmlns:xlink="http://www.w3.org/1999/xlink" xml:space="preserve" xmlns:serif="http://www.serif.com/" style="fill-rule:evenodd;clip-rule:evenodd;stroke-linejoin:round;stroke-miterlimit:2;">
    <g>
        <path d="M173.44,216.64L173.44,75.99L223.44,75.99L223.44,216.64L711,216.64L711,674.28L43.07,674.28L43.07,216.64L173.44,216.64ZM93.07,266.64L93.07,624.28L661,624.28L661,266.64L93.07,266.64Z"/>
        <path d="M474.63,301.89C396.026,301.89 332.21,365.706 332.21,444.31C332.21,522.914 396.026,586.73 474.63,586.73C553.234,586.73 617.05,522.914 617.05,444.31C617.05,365.706 553.234,301.89 474.63,301.89ZM474.63,351.89C525.638,351.89 567.05,393.302 567.05,444.31C567.05,495.318 525.638,536.73 474.63,536.73C423.622,536.73 382.21,495.318 382.21,444.31C382.21,393.302 423.622,351.89 474.63,351.89Z"/>
    </g>
</svg>
