<!-- Generated by IcoMoon.io -->
<svg version="1.1" xmlns="http://www.w3.org/2000/svg" width="750" height="750" viewBox="0 0 1024 1024">
<title></title>
<path fill="#000" d="M176.503 203.56c121.129-121.14 317.584-121.251 438.684 0s121.251 317.566 0 438.684c-121.251 121.112-317.539 121.185-438.684 0s-121.14-317.556 0-438.684zM395.134 242.767c-48.274 0-94.569 19.179-128.7 53.311-52.064 52.055-67.644 130.35-39.472 198.374s94.549 112.376 168.173 112.376c73.624 0 140.002-44.352 168.173-112.376s12.592-146.319-39.472-198.374c-34.131-34.132-80.429-53.311-128.7-53.311z"></path>
<path fill="#000" d="M535.575 635.918l95.359-95.359 275.419 275.419-95.359 95.359-275.419-275.419z"></path>
</svg>
