<svg id="Ebene_1" data-name="Ebene 1" xmlns="http://www.w3.org/2000/svg" viewBox="0 0 750 750"><title>mova_nav-icons_V01</title><path d="M388,199.6a133.6,133.6,0,1,0,0,188.94A133.14,133.14,0,0,0,388,199.6Zm-31.8,157.12a88.61,88.61,0,1,1,0-125.3A88.06,88.06,0,0,1,356.23,356.72Z"/><path d="M685.88,564.16,503.57,381.86c35.27-82.93,19.1-182.52-48.54-250.16a227.65,227.65,0,0,0-321.95,0c-88.91,88.92-88.91,233.05,0,322a227.9,227.9,0,0,0,267,40.56L578,672.1ZM294.06,475.33a182.61,182.61,0,1,1,129.17-53.49A181.47,181.47,0,0,1,294.06,475.33Zm189.65-42.62L615.17,564.16,578,601.38,446.49,469.93Z"/></svg>