<?xml version="1.0" encoding="utf-8"?>
<!-- Generator: Adobe Illustrator 26.0.3, SVG Export Plug-In . SVG Version: 6.00 Build 0)  -->
<svg version="1.1" xmlns="http://www.w3.org/2000/svg" xmlns:xlink="http://www.w3.org/1999/xlink" x="0px" y="0px"
	 viewBox="0 0 750 750" style="enable-background:new 0 0 750 750;" xml:space="preserve">
<style type="text/css">
	.st0{display:none;}
	.st1{display:inline;}
	.st2{fill:#FFFFFF;}
	.st3{display:inline;fill:#FFFFFF;}
	.st4{fill:none;stroke:#000000;stroke-width:50;}
	.st5{stroke:#000000;stroke-width:50;}
	.st6{stroke:#FFFFFF;stroke-width:50;}
	.st7{stroke:#FFFFFF;stroke-miterlimit:10;}
	.st8{fill:none;}
</style>
<g id="Ebene_1" class="st0">
</g>
<g id="Ebene_2">
	<g>
		<g>
			<path class="st7" d="M598.9,337.1c2.3,12.8,3.7,26,3.7,39.5c0,16.5-2,32.5-5.4,48H750v-87.5H598.9z"/>
			<path class="st7" d="M159.6,376.6c0-13.5,1.4-26.6,3.7-39.5H0v87.5h165C161.5,409.2,159.6,393.1,159.6,376.6z"/>
		</g>
		<g>
			<path class="st7" d="M563.7,501.7c-16.7,24.3-38.1,44.9-62.8,60.9l110.5,110.5l61.9-61.9L563.7,501.7z"/>
			<path class="st7" d="M256,194L142.1,80l-61.9,61.9l114.9,114.9C211.1,232,231.8,210.6,256,194z"/>
		</g>
		<g>
			<path class="st7" d="M381.1,155.1c15,0,29.6,1.5,43.8,4.4V0.4h-87.5v159.1C351.5,156.6,366.1,155.1,381.1,155.1z"/>
			<path class="st7" d="M381.1,598.1c-15,0-29.6-1.5-43.8-4.4v156.6h87.5V593.7C410.7,596.6,396.1,598.1,381.1,598.1z"/>
		</g>
		<path class="st7" d="M381.1,217.6c-87.7,0-159,71.3-159,159c0,87.7,71.3,159,159,159c87.7,0,159-71.3,159-159
			C540.1,288.9,468.8,217.6,381.1,217.6z"/>
		<g>
			<path class="st7" d="M567.1,256.8l112.5-112.5l-61.9-61.9L506.2,194C530.4,210.6,551.1,232,567.1,256.8z"/>
			<path class="st7" d="M198.4,501.7L88.3,611.9l61.9,61.9l111.1-111.1C236.5,546.6,215.1,525.9,198.4,501.7z"/>
		</g>
	</g>
</g>
</svg>
