<?xml version="1.0" encoding="utf-8"?>
<!-- Generator: Adobe Illustrator 26.0.3, SVG Export Plug-In . SVG Version: 6.00 Build 0)  -->
<svg version="1.1" xmlns="http://www.w3.org/2000/svg" xmlns:xlink="http://www.w3.org/1999/xlink" x="0px" y="0px"
	 viewBox="0 0 750 750" style="enable-background:new 0 0 750 750;" xml:space="preserve">
<style type="text/css">
	.st0{display:none;}
	.st1{display:inline;}
	.st2{fill:#FFFFFF;}
	.st3{display:inline;fill:#FFFFFF;}
	.st4{fill:none;stroke:#000000;stroke-width:50;}
	.st5{stroke:#000000;stroke-width:50;}
	.st6{stroke:#FFFFFF;stroke-width:50;}
	.st7{stroke:#FFFFFF;stroke-miterlimit:10;}
	.st8{fill:none;}
</style>
<g id="Ebene_1" class="st0">
</g>
<g id="Ebene_2">
	<g>
		<g id="Ellipse_3_00000162354193082646430310000007093266078865578126_">
			<circle class="st8" cx="374.6" cy="375.2" r="168.4"/>
			<path d="M374.6,543.7c-45,0-87.3-17.5-119.1-49.3s-49.3-74.1-49.3-119.1s17.5-87.3,49.3-119.1s74.1-49.3,119.1-49.3
				s87.3,17.5,119.1,49.3c31.8,31.8,49.3,74.1,49.3,119.1s-17.5,87.3-49.3,119.1C461.9,526.2,419.6,543.7,374.6,543.7z M374.6,245
				c-34.8,0-67.5,13.5-92.1,38.2s-38.2,57.3-38.2,92.1s13.5,67.5,38.2,92.1s57.3,38.2,92.1,38.2c34.8,0,67.5-13.5,92.1-38.2
				c24.6-24.6,38.2-57.3,38.2-92.1s-13.5-67.5-38.2-92.1C442.1,258.5,409.4,245,374.6,245z"/>
		</g>
		<polygon points="403.5,418 288.5,418 288.5,379.8 365.3,379.8 365.3,271.7 403.5,271.7 		"/>
	</g>
</g>
</svg>
