<svg id="Ebene_1" data-name="Ebene 1" xmlns="http://www.w3.org/2000/svg" viewBox="0 0 750 750"><title>mova_nav-icons_V01</title><path d="M395.92,197A127.6,127.6,0,0,1,523.48,322.28l.86,48.83,48.83.29a127.59,127.59,0,0,1-.78,255.17c-1.11,0-2.22,0-3.33,0l-51.27-1.3v1.61H228.94v-.31l-50.18.18h-.66a127.59,127.59,0,0,1,.29-255.18,128.59,128.59,0,0,1,28.75,3.24L268.86,389l-.51-63.33c0-.35,0-.71,0-1.06v-.14A127.59,127.59,0,0,1,395.92,197m0-50A177.59,177.59,0,0,0,218.33,324.59c0,.49,0,1,0,1.46a177.61,177.61,0,1,0-40,350.66h.55v.13H567.79v-.33c1.53,0,3.06.06,4.6.06A177.59,177.59,0,0,0,750,499c0-97.72-78.93-177-176.51-177.58A177.58,177.58,0,0,0,395.92,147Z"/></svg>